<svg width="24" height="24" viewBox="0 0 24 24" fill="none" xmlns="http://www.w3.org/2000/svg">
<path d="M22.107 5.44851L22.1075 5.45032C23.2574 9.84558 23.3137 14.1984 22.1744 18.5245L22.1741 18.5254C21.7172 20.2671 20.3515 21.6309 18.5981 22.0899L18.5962 22.0905C14.0457 23.2915 9.65656 23.2953 5.40863 22.148L5.40748 22.1476C3.67576 21.6821 2.32818 20.3323 1.86994 18.6108L1.86955 18.6093C0.691791 14.2112 0.72392 9.83267 1.88401 5.45597L1.88461 5.45371C2.3385 3.72501 3.68858 2.3681 5.42585 1.90093L5.42781 1.90039C9.9289 0.680182 14.2982 0.726475 18.5597 1.87984L18.561 1.88018C20.3037 2.34938 21.6564 3.71308 22.107 5.44851Z" fill="white" stroke="#105B63" stroke-width="2"/>
</svg>
