<svg width="257" height="409" viewBox="0 0 257 409" fill="none" xmlns="http://www.w3.org/2000/svg">
<g filter="url(#filter0_d_500_7277)">
<rect x="4" width="249" height="401" rx="19" fill="#DB124B"/>
</g>
<g filter="url(#filter1_d_500_7277)">
<rect x="13" y="9" width="231" height="383" rx="19" stroke="#D1A675" stroke-width="4" shape-rendering="crispEdges"/>
</g>
<circle cx="217" cy="35" r="12" stroke="#D1A675" stroke-width="2"/>
<path d="M221.346 30.5956L212.596 39.3456" stroke="#D1A675" stroke-width="2" stroke-linecap="round" stroke-linejoin="round"/>
<path d="M212.596 30.5956L221.346 39.3456" stroke="#D1A675" stroke-width="2" stroke-linecap="round" stroke-linejoin="round"/>
<path d="M177.278 140.533H150.235C150.022 140.534 149.809 140.518 149.599 140.488C136.884 138.572 134.295 128.7 134.193 128.261L142.524 126.224V126.137C142.666 126.647 144.05 130.839 150.596 131.939H177.298C177.874 131.92 178.448 132.016 178.986 132.223C179.523 132.43 180.014 132.743 180.428 133.144C180.843 133.545 181.172 134.026 181.397 134.557C181.622 135.088 181.738 135.659 181.738 136.236C181.738 136.814 181.622 137.385 181.397 137.916C181.172 138.447 180.843 138.928 180.428 139.329C180.014 139.729 179.523 140.043 178.986 140.25C178.448 140.457 177.874 140.553 177.298 140.533H177.278Z" fill="#D3A876"/>
<path d="M140.698 172.194C139.722 172.192 138.776 171.857 138.016 171.246C137.255 170.634 136.725 169.781 136.512 168.827C135.231 163.04 135.856 158.129 138.384 154.313C140.495 151.161 143.731 148.937 147.427 148.098C147.692 148.047 147.961 148.022 148.231 148.022H174.77C175.909 148.022 177 148.475 177.806 149.281C178.611 150.088 179.063 151.181 179.063 152.321C179.063 153.462 178.611 154.555 177.806 155.362C177 156.168 175.909 156.621 174.77 156.621H148.76C147.041 157.13 143.165 159.168 144.894 166.967C145.016 167.518 145.029 168.088 144.931 168.644C144.834 169.199 144.627 169.731 144.325 170.207C144.022 170.682 143.628 171.094 143.167 171.418C142.705 171.741 142.184 171.97 141.634 172.092C141.327 172.161 141.013 172.195 140.698 172.194Z" fill="#D3A876"/>
<path d="M183.345 176.066H129.163C128.088 176.028 127.07 175.574 126.322 174.799C125.575 174.024 125.158 172.988 125.158 171.911C125.158 170.834 125.575 169.799 126.322 169.024C127.07 168.249 128.088 167.795 129.163 167.757H183.345C183.902 167.737 184.457 167.83 184.978 168.03C185.498 168.23 185.973 168.533 186.373 168.921C186.774 169.309 187.093 169.773 187.311 170.287C187.529 170.801 187.641 171.353 187.641 171.911C187.641 172.469 187.529 173.022 187.311 173.536C187.093 174.049 186.774 174.514 186.373 174.902C185.973 175.289 185.498 175.592 184.978 175.792C184.457 175.992 183.902 176.085 183.345 176.066V176.066Z" fill="#D3A876"/>
<path d="M158.764 217.38C157.663 217.38 156.608 216.942 155.829 216.162C155.051 215.383 154.614 214.325 154.614 213.223V138.246C154.614 137.144 155.051 136.086 155.829 135.307C156.608 134.527 157.663 134.089 158.764 134.089C159.865 134.089 160.92 134.527 161.699 135.307C162.477 136.086 162.914 137.144 162.914 138.246V213.223C162.914 214.325 162.477 215.383 161.699 216.162C160.92 216.942 159.865 217.38 158.764 217.38Z" fill="#D3A876"/>
<path d="M104.373 167.721C104.373 164.232 104.454 161.287 104.627 157.115C104.644 156.586 104.808 156.072 105.101 155.632C105.394 155.192 105.804 154.843 106.285 154.624C107.244 154.117 108.356 153.981 109.408 154.242C111.066 154.537 111.96 155.495 112.089 157.115C112.089 160.268 112.023 163.228 111.895 167.721H133.517C134.043 167.698 134.565 167.831 135.017 168.103C135.469 168.374 135.832 168.773 136.06 169.25C136.57 170.524 136.724 171.913 136.507 173.269C136.205 174.967 135.207 175.904 133.511 176.081H113.869C115.636 181.249 118.104 186.15 121.203 190.645C124.475 195.284 129.066 200.075 134.976 205.016C137.736 207.353 138.204 209.672 136.38 211.975C136.069 212.403 135.654 212.746 135.174 212.969C134.695 213.193 134.166 213.291 133.639 213.253C132.244 213.146 130.923 212.586 129.875 211.659C120.293 203.926 113.032 193.69 108.895 182.082C104.049 195.072 96.4811 205.121 86.1901 212.229C84.7016 213.214 83.3622 213.491 82.1721 213.06C81.5998 212.881 81.0746 212.576 80.6347 212.168C80.1948 211.76 79.8512 211.259 79.629 210.701C78.9508 209.21 79.4188 207.784 81.0328 206.422C87.4515 201.735 92.4257 196.901 95.9555 191.919C99.3282 187.14 101.771 181.766 103.157 176.081H78.0778C76.9334 176.04 79.6036 175.505 79.095 174.481C78.6728 173.549 79.8986 171.639 80.0664 170.528C80.4072 168.827 80.931 167.889 82.6756 167.716L104.373 167.721Z" fill="#D3A876"/>
<path d="M83.2809 223.839H104.963V220.069C105.009 218.704 105.538 217.746 106.56 217.196C107.532 216.601 108.685 216.373 109.81 216.554C111.682 216.857 112.724 218.028 112.938 220.069V223.839H134.62C135.138 223.823 135.651 223.951 136.1 224.21C136.549 224.47 136.918 224.849 137.163 225.306C137.717 226.249 137.92 227.356 137.738 228.434C137.484 230.309 136.443 231.353 134.615 231.567H112.933V236.804H132.382C132.925 236.789 133.462 236.923 133.934 237.193C134.405 237.462 134.794 237.857 135.058 238.332C135.603 239.278 135.784 240.39 135.566 241.46C135.312 243.294 134.249 244.313 132.377 244.517H85.0763C84.5261 244.528 83.9836 244.385 83.5106 244.103C83.0376 243.821 82.6532 243.412 82.401 242.922C81.8528 242.004 81.6712 240.912 81.8924 239.866C82.1467 238.032 83.208 237.013 85.0763 236.809H104.973V231.567H83.2911C82.7545 231.583 82.2234 231.455 81.7529 231.196C81.2825 230.938 80.8898 230.557 80.6157 230.095C80.0653 229.178 79.8614 228.093 80.041 227.038C80.2478 225.075 81.3278 224.009 83.2809 223.839Z" fill="#D3A876"/>
<path d="M119.301 61.1145C118.162 61.1145 117.07 60.6615 116.265 59.8552C115.46 59.0489 115.008 57.9553 115.008 56.815V40.2995C115.008 39.1592 115.46 38.0656 116.265 37.2593C117.07 36.453 118.162 36 119.301 36C120.439 36 121.531 36.453 122.336 37.2593C123.141 38.0656 123.594 39.1592 123.594 40.2995V56.815C123.594 57.9553 123.141 59.0489 122.336 59.8552C121.531 60.6615 120.439 61.1145 119.301 61.1145Z" fill="#D3A876"/>
<path d="M143.15 53.1522H120.476C119.337 53.1522 118.245 52.6993 117.44 51.893C116.635 51.0866 116.183 49.993 116.183 48.8527C116.183 47.7124 116.635 46.6188 117.44 45.8125C118.245 45.0062 119.337 44.5532 120.476 44.5532H143.15C144.288 44.5532 145.38 45.0062 146.185 45.8125C146.99 46.6188 147.442 47.7124 147.442 48.8527C147.442 49.993 146.99 51.0866 146.185 51.893C145.38 52.6993 144.288 53.1522 143.15 53.1522V53.1522Z" fill="#D3A876"/>
<path d="M79.0339 139.683C77.9312 139.684 76.8703 139.26 76.0712 138.499C75.2721 137.738 74.796 136.698 74.7417 135.595C74.6874 134.492 75.0591 133.41 75.7796 132.574C76.5002 131.738 77.5143 131.211 78.6118 131.104C88.0923 130.156 88.784 117.35 88.784 116.331V73.7227C88.7839 73.1332 88.9049 72.55 89.1394 72.0092C89.3739 71.4685 89.7169 70.9819 90.1471 70.5796C107.191 54.6805 123.766 55.5771 134.666 59.1329C141.903 61.5397 148.536 65.4804 154.115 70.6865C154.855 71.5024 155.253 72.5715 155.229 73.6731C155.204 74.7747 154.758 75.8248 153.983 76.6066C153.207 77.3884 152.162 77.8421 151.062 77.8743C149.963 77.9064 148.893 77.5144 148.073 76.7792C147.015 75.7298 123.395 52.923 97.3847 75.6483V116.514C97.2067 123.926 93.2395 138.302 79.4663 139.678C79.3223 139.687 79.178 139.689 79.0339 139.683V139.683Z" fill="#D3A876"/>
<path d="M140.795 81.6136H106.636C105.498 81.6136 104.406 81.1607 103.601 80.3543C102.796 79.548 102.344 78.4544 102.344 77.3141C102.344 76.1738 102.796 75.0802 103.601 74.2739C104.406 73.4676 105.498 73.0146 106.636 73.0146H140.795C141.933 73.0146 143.025 73.4676 143.83 74.2739C144.635 75.0802 145.088 76.1738 145.088 77.3141C145.088 78.4544 144.635 79.548 143.83 80.3543C143.025 81.1607 141.933 81.6136 140.795 81.6136V81.6136Z" fill="#D3A876"/>
<path d="M134.29 95.5922C127.678 95.5922 122.592 93.6716 119.031 89.851C115.807 86.3869 114.077 81.4252 114.032 75.5057C114.009 72.9346 114.289 70.3698 114.866 67.8643C115.165 66.7817 115.876 65.8595 116.846 65.2952C117.816 64.7308 118.968 64.5692 120.055 64.8448C121.143 65.1204 122.079 65.8114 122.665 66.7699C123.25 67.7284 123.437 68.8783 123.187 69.9734C122.546 72.5663 121.661 80.1363 125.328 84.0232C127.2 86.0252 131.345 88.0578 140.485 86.4022C141.042 86.2943 141.616 86.2983 142.172 86.414C142.728 86.5298 143.256 86.755 143.725 87.0766C144.194 87.3982 144.594 87.8098 144.903 88.2875C145.211 88.7652 145.422 89.2995 145.523 89.8595C145.624 90.4194 145.613 90.9939 145.491 91.5496C145.369 92.1053 145.137 92.6311 144.811 93.0966C144.484 93.562 144.068 93.9579 143.587 94.2613C143.107 94.5646 142.571 94.7694 142.01 94.8637C139.463 95.3341 136.88 95.5779 134.29 95.5922Z" fill="#D3A876"/>
<path d="M138.145 131.756C137.066 131.756 136.031 131.327 135.268 130.562C134.505 129.798 134.076 128.762 134.076 127.681V107.1C125.043 101.43 115.919 105.215 112.206 107.243V127.309C112.105 128.314 111.635 129.246 110.887 129.924C110.139 130.602 109.166 130.977 108.157 130.977C107.148 130.977 106.176 130.602 105.427 129.924C104.679 129.246 104.209 128.314 104.109 127.309V104.976C104.109 104.332 104.262 103.698 104.555 103.125C104.848 102.552 105.272 102.057 105.792 101.68C111.951 97.2529 127.154 91.5678 140.556 101.741C141.053 102.121 141.456 102.61 141.734 103.171C142.012 103.732 142.157 104.349 142.158 104.976V127.721C142.147 128.786 141.722 129.803 140.972 130.557C140.222 131.311 139.207 131.741 138.145 131.756V131.756Z" fill="#D3A876"/>
<path d="M122.622 278.658C124.56 276.534 125.908 274.287 128.446 272.825C131.258 271.21 134.366 271.297 136.975 273.335C139.198 275.072 142.102 275.556 144.533 274.007C145.467 273.463 146.217 272.652 146.688 271.678C147.159 270.704 147.33 269.612 147.178 268.541C148.861 269.611 149.853 272.469 149.919 274.471C150.016 277.43 148.271 280.584 145.342 280.925C142.412 281.266 139.569 279.198 137.204 277.7C134.707 276.111 131.965 274.532 129.066 274.827C126.584 275.082 124.377 276.727 122.622 278.658Z" fill="#D3A876"/>
<path d="M149.726 267.405C154.883 263.513 162.411 265.153 160.214 271.297C157.671 278.332 149.238 281.485 147.661 279.198C146.084 276.911 159.71 271.557 168.967 278.47C168.967 278.47 161.256 270.869 149.848 272.937C138.44 275.005 143.465 283.961 153.683 280.675C162.228 277.924 167.756 268.862 164.822 262.005C162.426 256.401 154.268 257.629 151.425 260.864C148.51 264.18 149.299 267.726 149.726 267.405Z" fill="#D3A876"/>
<path d="M171.759 262.509C176.916 258.617 184.444 260.258 182.247 266.401C179.704 273.436 171.271 276.59 169.694 274.302C168.118 272.015 181.743 266.661 191 273.574C191 273.574 183.289 265.973 171.876 268.042C160.463 270.11 165.498 279.066 175.711 275.78C184.261 273.024 189.784 263.966 186.855 257.109C184.459 251.506 176.301 252.734 173.458 255.968C170.544 259.285 171.332 262.83 171.759 262.509Z" fill="#D3A876"/>
<path d="M147.763 259.05C146.71 254.328 144.111 251.918 141.471 251.786C139.335 251.674 135.185 253.625 134.986 260.268C134.788 266.911 139.849 268.149 142.519 267.858C145.535 267.527 148.811 263.773 147.763 259.05ZM142.066 265.265C141.11 265.367 139.294 264.924 139.366 262.535C139.437 260.146 140.922 259.448 141.69 259.478C142.636 259.529 143.567 260.395 143.943 262.092C144.32 263.788 143.145 265.123 142.066 265.265Z" fill="#D3A876"/>
<path d="M167.904 207.823V207.12H170.416V203.946H167.904V203.243H173.834V203.946H171.073V207.12H173.834V207.823H167.904Z" fill="#D1A675"/>
<path d="M167.904 199.835V199.173L173.834 196.626V197.446L172.38 198.052V201.022L173.834 201.639V202.433L167.904 199.835ZM168.809 199.514L171.724 200.747V198.322L168.809 199.514Z" fill="#D1A675"/>
<path d="M167.904 195.857V194.094C167.904 193.004 168.285 192.01 169.526 192.01C170.767 192.01 171.169 193.121 171.169 193.962V195.154H173.834V195.857H167.904ZM170.518 195.154V193.946C170.518 193.238 170.198 192.754 169.537 192.754C168.875 192.754 168.555 193.238 168.555 193.946V195.138L170.518 195.154Z" fill="#D1A675"/>
<path d="M167.904 190.89V189.127C167.904 188.037 168.285 187.044 169.526 187.044C170.767 187.044 171.169 188.154 171.169 188.995V190.187H173.834V190.89H167.904ZM170.518 190.187V188.995C170.518 188.287 170.198 187.803 169.537 187.803C168.875 187.803 168.555 188.312 168.555 188.995V190.187H170.518Z" fill="#D1A675"/>
<path d="M171.281 184.502L167.904 186.718V185.821L170.584 184.15L167.904 182.428V181.578L171.281 183.799H173.824V184.502H171.281Z" fill="#D1A675"/>
<path d="M179.139 223.554V222.662L184.068 219.224H179.139V218.5H185.075V219.417L180.156 222.831H185.085V223.534L179.139 223.554Z" fill="#D1A675"/>
<path d="M179.139 217.023V213.304H179.795V216.335H181.682V213.503H182.333V216.335H184.444V213.152H185.1V217.038L179.139 217.023Z" fill="#D1A675"/>
<path d="M179.139 212.734V211.954L184.068 210.604L179.139 209.127V208.337L184.068 206.886L179.139 205.505V204.766L185.075 206.514V207.278L180.055 208.72L185.085 210.197V210.966L179.139 212.734Z" fill="#D1A675"/>
<path d="M182.527 200.227L179.149 202.449V201.547L181.835 199.876L179.149 198.154V197.308L182.527 199.524H185.07V200.227H182.527Z" fill="#D1A675"/>
<path d="M179.139 196.646V192.927H179.795V195.958H181.682V193.126H182.333V195.958H184.444V192.775H185.1V196.661L179.139 196.646Z" fill="#D1A675"/>
<path d="M179.139 189.738V189.076L185.075 186.529V187.349L183.615 187.955V190.925L185.075 191.542V192.337L179.139 189.738ZM180.045 189.418L182.964 190.65V188.225L180.045 189.418Z" fill="#D1A675"/>
<path d="M179.139 185.76V184.232C179.139 183.08 179.307 181.863 180.777 181.863C181.18 181.858 181.568 182.011 181.861 182.289C182.153 182.566 182.326 182.947 182.343 183.35L185.075 181.664V182.525L182.41 184.14V185.047H185.075V185.75L179.139 185.76ZM181.753 185.057V184.425C181.753 183.646 181.753 182.632 180.777 182.632C179.922 182.632 179.795 183.376 179.795 184.063V185.057H181.753Z" fill="#D1A675"/>
<path d="M84.5066 156.494C84.3446 155.852 83.963 155.288 83.4283 154.899C83.4843 155.072 83.5352 155.245 83.6064 155.409C84.0561 156.417 84.2917 157.508 84.2981 158.613C84.2269 160.718 83.6809 162.78 82.7011 164.644C82.1263 165.811 81.455 166.932 80.809 168.063C80.3004 168.964 79.7918 169.876 79.212 170.727C78.5304 171.746 77.5132 172.352 76.5112 172.989C76.0614 173.317 75.5434 173.54 74.9957 173.641C74.448 173.742 73.8846 173.717 73.3477 173.569C72.8681 173.45 72.3652 173.465 71.893 173.61C70.0315 174.186 68.5311 175.194 67.8241 177.176C67.5088 178.063 66.7052 178.45 65.8762 178.74C65.7388 178.786 65.5354 178.653 65.3675 178.602C65.4195 178.43 65.4806 178.26 65.5506 178.093C65.6278 177.999 65.7167 177.915 65.8151 177.843C65.3711 177.675 64.8808 177.675 64.4367 177.843C63.6484 178.108 63.2669 177.986 62.9109 177.334C62.8143 177.151 62.7075 176.825 62.7939 176.728C62.9853 176.532 63.2355 176.405 63.506 176.366C63.8236 176.359 64.141 176.388 64.452 176.453L64.3757 176.055L64.7928 176.02C65.8069 175.964 66.7819 175.61 67.5952 175.001C67.811 174.831 67.9879 174.616 68.1143 174.372C68.2406 174.128 68.3133 173.859 68.3276 173.585C68.3543 172.614 68.1375 171.653 67.697 170.788C67.434 170.109 67.0201 169.499 66.4865 169.005C65.9321 168.531 65.3624 168.078 64.7978 167.619C64.7012 167.543 64.5893 167.482 64.4876 167.416C64.7478 167.807 65.0386 168.176 65.3574 168.521C65.534 168.693 65.6486 168.919 65.6829 169.163C65.6612 170.235 65.8 171.305 66.0948 172.337C66.1457 172.551 66.161 172.775 66.1915 172.994H66.3136C66.3746 172.586 66.4407 172.179 66.4916 171.771C66.5424 171.364 66.578 170.951 66.6289 170.436C67.5444 171.572 67.7326 173.839 67.0002 174.512C67.0561 174.201 67.1172 173.941 67.1426 173.687C67.168 173.432 67.1426 173.177 67.1426 172.928C67.0763 173.251 66.9434 173.557 66.7525 173.826C66.5616 174.096 66.3169 174.322 66.0338 174.491C64.9608 173.543 64.3001 172.212 64.1926 170.783L63.9943 170.819C63.8722 171.527 63.7552 172.235 63.6535 172.856L62.9313 173.172C62.8702 173.203 62.799 173.289 62.7533 173.274C62.3057 173.136 62.1124 173.462 61.8784 173.753L61.1054 171.807C61.0736 171.889 61.0514 171.974 61.0392 172.062C61.2393 173.226 61.4359 174.396 61.6292 175.571C61.6741 175.72 61.6846 175.877 61.6597 176.03C61.4207 176.784 61.7004 177.405 62.0412 178.068C62.5498 179.02 63.4195 179.453 64.335 179.907L64.3655 179.586C65.0524 180.295 65.9399 180.777 66.9086 180.966L66.3542 180.115C67.4276 180.384 68.5485 180.402 69.6297 180.166L68.3938 179.148C68.886 179.09 69.375 179.007 69.8586 178.898C70.3459 178.803 70.7889 178.55 71.1199 178.18C70.4079 178.119 69.7925 178.057 69.3601 177.563C69.8688 176.998 70.7334 176.86 71.2013 176.117C70.9021 176.208 70.5846 176.221 70.2787 176.156C69.9727 176.091 69.6882 175.95 69.4517 175.745C69.6451 175.543 69.8525 175.356 70.0722 175.184C70.8301 174.675 71.6234 174.216 72.5644 174.466C73.0289 174.582 73.4659 174.788 73.8501 175.074C74.2342 175.36 74.5579 175.72 74.8023 176.132C75.2169 176.768 75.49 177.487 75.6032 178.238C75.7164 178.99 75.667 179.757 75.4584 180.487C75.4584 180.487 75.494 180.528 75.5347 180.579C76.2075 180.154 76.8499 179.682 77.4572 179.168C78.1947 178.465 78.8203 177.64 79.4917 176.876C79.712 176.657 79.9097 176.416 80.0817 176.157C80.692 175.087 81.2871 174.013 81.8517 172.922C82.4162 171.832 82.9554 170.788 83.4131 169.683C84.0121 168.321 84.4327 166.888 84.6643 165.419C84.8423 164.109 85.1017 162.81 85.1729 161.496C85.2962 159.8 85.0693 158.098 84.5066 156.494V156.494Z" fill="#D3A876"/>
<path d="M74.7006 167.253C73.0664 168.159 71.2282 168.632 69.3601 168.628C68.5413 168.628 67.7173 168.541 66.7712 168.485C67.0866 168.623 67.3104 168.704 67.519 168.822C68.1751 169.193 68.8057 169.621 69.4822 169.953C70.2897 170.411 71.204 170.646 72.132 170.635C73.1377 170.528 74.1088 170.207 74.9803 169.693C76.2315 169.005 77.0147 167.874 77.8336 166.738C78.2498 166.218 78.5702 165.628 78.7797 164.996C79.1058 163.666 79.6342 162.395 80.3462 161.226C81.048 160.095 81.872 159.031 82.6247 157.935L82.9858 157.395C81.2057 158.924 79.2984 160.35 78.2913 162.637C77.1622 160.284 75.1278 159.331 72.8288 158.684C72.9578 159.187 73.058 159.698 73.1289 160.212C73.1772 160.731 73.1772 161.253 73.1289 161.771C73.0526 162.463 72.7375 163.106 72.2378 163.59C71.7382 164.074 71.0855 164.367 70.3926 164.42C68.943 164.466 67.4884 164.548 66.0389 164.593C65.8464 164.58 65.6655 164.497 65.5303 164.359C64.8792 163.717 64.3045 162.984 63.6026 162.403C62.809 161.643 61.7554 161.217 60.6578 161.211C60.3427 161.255 60.0326 161.33 59.7321 161.435L59.788 161.598C60.7732 161.507 61.7572 161.784 62.5498 162.377C63.7457 163.153 64.5937 164.364 64.9149 165.755C64.9454 165.872 65.1081 166.055 65.2047 166.05C66.344 166.004 67.4833 165.933 68.6226 165.862C69.4771 165.811 70.3366 165.673 71.1657 165.994C71.4058 166.1 71.6706 166.136 71.9303 166.1C72.19 166.063 72.4343 165.954 72.6356 165.785C73.3324 165.21 74.0292 164.629 74.7107 164.033C75.2194 163.605 75.6568 163.142 76.1552 162.719C76.2188 162.665 76.2927 162.625 76.3723 162.602C76.4519 162.578 76.5356 162.571 76.618 162.581C76.8292 162.628 77.0263 162.725 77.193 162.863C77.3598 163.001 77.4915 163.176 77.5774 163.375C77.6633 163.574 77.7009 163.79 77.6871 164.007C77.6732 164.223 77.6084 164.433 77.4979 164.619C76.8358 165.746 75.8651 166.66 74.7006 167.253V167.253Z" fill="#D3A876"/>
<path d="M58.2113 158.144C59.0709 157.742 59.9355 157.355 60.8154 156.993C61.2725 156.784 61.7546 156.635 62.2497 156.55C62.4865 156.508 62.7301 156.534 62.9531 156.624C63.176 156.714 63.3693 156.865 63.5111 157.059C63.8112 157.487 63.6026 157.874 63.3381 158.246C63.2253 158.439 63.1234 158.638 63.033 158.842C63.2835 158.782 63.5273 158.697 63.7603 158.587C63.9167 158.476 64.0988 158.408 64.2893 158.387C64.4798 158.367 64.6724 158.395 64.8487 158.47C65.1222 158.571 65.4162 158.602 65.7046 158.561C65.993 158.52 66.2669 158.408 66.5017 158.236C66.7765 158.1 67.0723 158.012 67.3765 157.976C67.6817 157.91 67.9919 157.869 68.175 157.838C68.1293 157.451 67.9767 157.105 68.0886 156.927C68.4904 156.275 69.0753 156.677 69.6449 156.743C69.598 156.652 69.5179 156.583 69.4212 156.55C69.0245 156.392 68.6277 156.224 68.2259 156.081C67.7021 155.867 67.1411 155.759 66.5754 155.763C66.0097 155.768 65.4505 155.884 64.9301 156.106C64.7419 156.193 64.5334 156.341 64.3503 156.32C64.0097 156.307 63.6784 156.205 63.389 156.025C63.3067 155.921 63.2522 155.797 63.2308 155.666C63.2095 155.535 63.2219 155.401 63.267 155.276C63.9841 153.936 65.3014 153.126 66.8273 153.503C67.6665 153.712 68.2259 154.283 68.0835 155.22C68.053 155.403 68.0428 155.582 68.0225 155.765L68.1649 155.811L68.943 154.283L68.4344 154.074L68.821 153.722C68.231 152.933 67.3206 152.836 66.3746 152.703C66.5902 152.493 66.8524 152.336 67.1399 152.245C67.4274 152.155 67.7321 152.134 68.0294 152.183C68.3266 152.233 68.608 152.352 68.8507 152.531C69.0934 152.71 69.2906 152.943 69.4263 153.213C69.7798 154.086 69.8939 155.037 69.7568 155.969C69.7568 156.137 69.7111 156.305 69.6908 156.478C70.2304 156.102 70.6125 155.54 70.7639 154.899C70.8383 154.622 70.8204 154.329 70.713 154.064C70.5452 153.794 70.4536 153.666 70.774 153.473C70.8452 153.427 70.8452 153.162 70.774 153.04C70.6164 152.693 70.4181 152.362 70.1892 151.939L71.8371 150.742V150.589C71.5268 150.589 71.2165 150.589 70.9063 150.589C69.4923 150.681 68.2055 151.231 66.8984 151.705C64.8899 152.422 63.1081 153.662 61.736 155.296C61.5041 155.563 61.2247 155.784 60.9121 155.948C60.0576 156.387 59.1268 156.692 58.3283 157.207C57.3141 157.904 56.341 158.659 55.4139 159.469C55.0763 159.801 54.7745 160.168 54.5137 160.564C54.4832 160.61 54.5544 160.732 54.5798 160.824L55.2359 160.192C56.1024 159.343 57.109 158.65 58.2113 158.144V158.144Z" fill="#D3A876"/>
<path d="M74.4818 153.748C74.4382 153.839 74.413 153.937 74.4077 154.038C74.4025 154.138 74.4173 154.239 74.4513 154.334C74.5725 154.599 74.7471 154.836 74.9642 155.031C75.1812 155.226 75.436 155.373 75.7127 155.465C76.6481 155.72 77.6372 155.698 78.5609 155.403C79.5791 155.119 80.5063 154.575 81.2515 153.824L81.3634 153.896C81.0378 154.619 80.753 155.368 80.3461 156.066C79.9392 156.764 79.3289 157.227 79.0644 158.047C78.9429 158.412 78.7321 158.74 78.4513 159.001C78.1705 159.263 77.8287 159.45 77.4572 159.545C77.6671 159.628 77.8938 159.66 78.1184 159.637C78.5586 159.524 78.9688 159.315 79.3202 159.027C79.6716 158.738 79.9558 158.376 80.1529 157.966C80.2273 157.838 80.3367 157.733 80.4682 157.665C81.4606 157.28 82.2745 156.539 82.7519 155.587C83.1443 154.661 83.4839 153.714 83.7691 152.749C83.8987 152.169 83.9837 151.58 84.0234 150.987C83.3671 151.355 82.6875 151.68 81.9889 151.96C81.2891 152.153 80.5772 152.299 79.8579 152.398C80.6106 152.907 80.6462 153.559 79.985 154.089C79.5373 154.423 79.0258 154.66 78.4824 154.787C77.9391 154.914 77.3754 154.928 76.8265 154.828C76.6499 154.827 76.4773 154.775 76.3301 154.677C76.183 154.58 76.0677 154.44 75.9989 154.278C75.93 154.115 75.9106 153.935 75.9429 153.761C75.9752 153.587 76.0578 153.427 76.1806 153.3C76.4502 153.006 76.7484 152.74 77.0706 152.505C76.7915 152.51 76.5131 152.533 76.2366 152.571C76.0331 152.607 75.85 152.734 75.6465 152.765C75.3855 152.817 75.1419 152.935 74.9383 153.107C74.7347 153.278 74.5776 153.499 74.4818 153.748V153.748Z" fill="#D3A876"/>
<path d="M62.6668 170.982C62.9034 171.147 63.1619 171.279 63.4348 171.374L63.4958 171.267C63.4122 171.166 63.3341 171.06 63.2619 170.951C62.8398 170.263 62.3108 169.626 62.1836 168.781C62.1563 168.681 62.1654 168.575 62.2092 168.482C62.2531 168.388 62.3288 168.314 62.4227 168.271C62.9122 167.969 63.3843 167.639 63.8366 167.283C64.0185 167.094 64.1741 166.882 64.2994 166.651L64.1977 166.56C63.5535 167.207 62.7413 167.66 61.853 167.869C60.7453 168.117 59.5888 168.029 58.5318 167.614C57.8753 167.307 57.3606 166.76 57.0924 166.086C56.8991 165.709 56.6601 165.347 57.128 164.925C56.5329 165.057 56.0548 165.159 55.6022 165.276C55.4241 165.317 55.1647 165.358 55.3275 165.643C55.6683 166.229 56.0142 166.814 56.3956 167.375C56.7475 167.782 57.0672 168.217 57.3518 168.674C57.6409 169.402 58.0519 170.076 58.5674 170.666C58.9488 171.048 59.3049 171.455 59.6711 171.853L59.7423 171.786L58.8675 168.878C59.2634 168.914 59.6617 168.914 60.0576 168.878C60.2131 168.843 60.3754 168.858 60.5221 168.92C60.6689 168.982 60.7927 169.088 60.8765 169.224C61.4461 169.795 62.0565 170.401 62.6668 170.982Z" fill="#D3A876"/>
<path d="M55.5462 163.89C55.6835 163.208 55.7852 163.126 56.477 163.208C56.6458 163.234 56.8187 163.218 56.9796 163.16C57.1405 163.102 57.2843 163.005 57.3976 162.877C57.6417 162.622 57.8401 162.316 58.1046 162.087C58.4962 161.751 58.9336 161.466 59.3506 161.155L59.3151 161.053C58.781 161.303 58.2317 161.527 57.718 161.807C57.2043 162.087 56.9602 162.123 56.655 161.741C56.4287 161.409 56.1149 161.146 55.7485 160.983C55.3821 160.819 54.9775 160.76 54.5798 160.813V160.813C53.939 161.18 53.9288 161.185 54.0712 161.914C54.1558 162.352 54.2748 162.783 54.4273 163.203C54.6663 163.809 54.9613 164.39 55.236 164.981L55.358 164.93C55.4292 164.573 55.4699 164.221 55.5462 163.89Z" fill="#D3A876"/>
<path d="M108.89 281.76C96.7235 281.76 87.1971 274.751 87.1971 265.805C87.1971 256.86 96.7235 249.85 108.89 249.85C121.056 249.85 130.582 256.86 130.582 265.805C130.582 274.751 121.05 281.76 108.89 281.76ZM108.89 256.671C100.823 256.671 94.0075 260.854 94.0075 265.805C94.0075 270.757 100.813 274.944 108.89 274.944C116.966 274.944 123.766 270.762 123.766 265.81C123.766 260.859 116.951 256.671 108.89 256.671Z" fill="#D3A876"/>
<path d="M75.9416 180.253C79.1182 177.595 83.0565 176.018 87.187 175.75L80.6768 173.417L75.9416 180.253Z" fill="#D3A876"/>
<path d="M116.636 347.063C116.637 350.146 115.725 353.161 114.015 355.725C112.306 358.289 109.875 360.288 107.032 361.469C104.188 362.649 101.058 362.959 98.039 362.358C95.0196 361.757 92.246 360.273 90.0689 358.093C87.8918 355.913 86.4089 353.135 85.808 350.111C85.2071 347.087 85.515 343.953 86.6928 341.104C87.8706 338.255 89.8655 335.821 92.425 334.107C94.9845 332.394 97.9938 331.48 101.072 331.48C105.197 331.485 109.152 333.129 112.069 336.05C114.987 338.971 116.629 342.931 116.636 347.063V347.063ZM101.072 329.121C97.5292 329.121 94.0659 330.174 91.1201 332.145C88.1742 334.117 85.8782 336.919 84.5224 340.197C83.1665 343.476 82.8118 347.083 83.503 350.563C84.1942 354.044 85.9003 357.241 88.4055 359.75C90.9107 362.259 94.1026 363.968 97.5774 364.66C101.052 365.353 104.654 364.997 107.927 363.639C111.201 362.281 113.998 359.982 115.967 357.031C117.935 354.081 118.985 350.612 118.985 347.063C118.98 342.306 117.091 337.746 113.733 334.382C110.375 331.019 105.821 329.127 101.072 329.121" fill="white"/>
<path d="M116.158 347.063C116.158 350.052 115.273 352.973 113.615 355.458C111.958 357.942 109.602 359.879 106.845 361.023C104.089 362.166 101.055 362.465 98.1291 361.882C95.2029 361.299 92.5149 359.86 90.4051 357.747C88.2954 355.634 86.8586 352.942 86.2766 350.011C85.6945 347.08 85.9933 344.042 87.135 341.281C88.2768 338.52 90.2103 336.16 92.6911 334.5C95.1719 332.84 98.0885 331.954 101.072 331.954C105.072 331.958 108.907 333.551 111.735 336.384C114.563 339.216 116.154 343.057 116.158 347.063V347.063ZM101.072 329.962C97.69 329.962 94.3837 330.967 91.5716 332.849C88.7595 334.731 86.5678 337.406 85.2737 340.536C83.9797 343.666 83.6413 347.109 84.3015 350.432C84.9617 353.754 86.5908 356.806 88.9827 359.201C91.3747 361.596 94.422 363.227 97.7393 363.887C101.057 364.547 104.495 364.207 107.619 362.91C110.744 361.613 113.414 359.417 115.292 356.6C117.171 353.783 118.173 350.471 118.172 347.084C118.166 342.543 116.363 338.191 113.157 334.981C109.951 331.771 105.605 329.966 101.072 329.962" fill="#FFBF3C"/>
<path d="M117.338 347.063C117.338 350.287 116.383 353.439 114.595 356.12C112.806 358.801 110.264 360.89 107.29 362.124C104.316 363.358 101.044 363.681 97.8867 363.052C94.7296 362.423 91.8295 360.87 89.5534 358.59C87.2772 356.31 85.7271 353.406 85.0991 350.244C84.4711 347.081 84.7934 343.804 86.0253 340.825C87.2571 337.846 89.3432 335.3 92.0197 333.509C94.6963 331.718 97.843 330.762 101.062 330.762C105.379 330.762 109.518 332.479 112.571 335.536C115.623 338.593 117.338 342.74 117.338 347.063Z" fill="#CE0E2D"/>
<path d="M116.407 347.063C116.408 350.101 115.509 353.071 113.825 355.598C112.141 358.124 109.746 360.094 106.944 361.257C104.142 362.42 101.059 362.725 98.0836 362.133C95.1086 361.541 92.3757 360.078 90.2306 357.931C88.0855 355.783 86.6246 353.046 86.0325 350.067C85.4404 347.087 85.7437 343.999 86.9042 341.192C88.0647 338.385 90.0302 335.986 92.5521 334.298C95.074 332.61 98.039 331.709 101.072 331.709C103.086 331.709 105.08 332.105 106.94 332.877C108.801 333.648 110.491 334.779 111.915 336.205C113.339 337.63 114.469 339.323 115.239 341.186C116.01 343.05 116.407 345.046 116.407 347.063" fill="#FFBF3C"/>
<path d="M108.762 349.6H105.507V352.759C105.507 353.66 104.602 354.154 103.758 354.154C102.913 354.154 101.942 353.645 101.942 352.626V341.465C101.942 340.721 102.959 340.288 103.305 340.288H108.096C111.702 340.288 113.238 342.58 113.238 344.873C113.238 347.257 111.59 349.615 108.762 349.615V349.6ZM107.745 343.105H105.502V346.773H107.745C107.983 346.786 108.221 346.75 108.444 346.667C108.667 346.584 108.87 346.455 109.041 346.289C109.211 346.122 109.346 345.922 109.435 345.702C109.525 345.481 109.568 345.244 109.561 345.005C109.569 344.761 109.528 344.517 109.441 344.289C109.353 344.061 109.221 343.852 109.052 343.676C108.882 343.5 108.68 343.359 108.455 343.263C108.231 343.167 107.989 343.116 107.745 343.115" fill="#CE0E2D"/>
<path d="M99.709 353.513C98.8472 353.942 97.9042 354.184 96.9422 354.221C92.7767 354.577 88.5806 352.356 88.5094 346.982C88.4484 342.983 91.7696 339.957 95.9046 339.957C96.5498 339.957 97.1936 340.018 97.8272 340.14C99.7904 340.507 100.808 341.159 100.808 342.178C100.814 342.332 100.802 342.485 100.772 342.636C100.699 342.917 100.536 343.165 100.308 343.342C100.08 343.52 99.7997 343.618 99.5107 343.62C99.0885 343.62 98.5697 343.406 98.1781 343.375C97.5061 343.183 96.8119 343.08 96.1132 343.069C95.36 343.04 94.6158 343.241 93.9798 343.646C93.3437 344.051 92.8459 344.641 92.5529 345.336C92.3826 345.831 92.2699 346.344 92.2172 346.865C92.1738 347.923 92.5093 348.962 93.1632 349.794C93.7379 350.517 95.0756 350.996 96.0928 350.996C96.7975 350.971 97.494 350.837 98.1578 350.599C98.5553 350.466 98.9699 350.392 99.3886 350.38C100.472 350.38 101.031 351.057 101.031 351.735C100.982 352.123 100.833 352.491 100.597 352.803C100.361 353.115 100.048 353.36 99.6887 353.513" fill="#CE0E2D"/>
<path d="M129.86 346.136H126.442V343.207H129.626C129.779 343.207 129.927 343.146 130.036 343.037C130.144 342.928 130.206 342.78 130.206 342.626C130.206 342.472 130.144 342.324 130.036 342.216C129.927 342.107 129.779 342.045 129.626 342.045H126.442V339.132H129.626C129.779 339.132 129.927 339.07 130.036 338.961C130.144 338.853 130.206 338.705 130.206 338.551C130.206 338.397 130.144 338.249 130.036 338.14C129.927 338.031 129.779 337.97 129.626 337.97H121.951C121.797 337.97 121.649 338.031 121.541 338.14C121.432 338.249 121.371 338.397 121.371 338.551C121.371 338.705 121.432 338.853 121.541 338.961C121.649 339.07 121.797 339.132 121.951 339.132H125.14V346.121H123.415V340.965C123.415 340.793 123.347 340.627 123.225 340.504C123.103 340.382 122.937 340.313 122.764 340.313C122.592 340.313 122.426 340.382 122.304 340.504C122.182 340.627 122.113 340.793 122.113 340.965V346.136H121.717C121.572 346.15 121.437 346.217 121.339 346.325C121.241 346.433 121.186 346.573 121.186 346.719C121.186 346.865 121.241 347.006 121.339 347.114C121.437 347.222 121.572 347.289 121.717 347.303H129.855C130 347.289 130.134 347.222 130.233 347.114C130.331 347.006 130.385 346.865 130.385 346.719C130.385 346.573 130.331 346.433 130.233 346.325C130.134 346.217 130 346.15 129.855 346.136" fill="white"/>
<path d="M151.003 340.023C150.04 339.616 149.126 339.103 148.276 338.495C147.89 338.225 147.559 337.985 147.33 337.807L146.974 337.527C146.952 337.503 146.924 337.483 146.893 337.471L146.786 337.425C146.671 337.387 146.546 337.387 146.43 337.425L146.354 337.456C146.323 337.473 146.294 337.493 146.267 337.517C146.267 337.517 146.145 337.619 145.911 337.797C144.787 338.685 143.555 339.426 142.244 340.003C142.116 340.05 142.008 340.141 141.94 340.26C141.873 340.38 141.849 340.519 141.874 340.654C141.899 340.789 141.971 340.91 142.077 340.997C142.183 341.084 142.316 341.131 142.453 341.128C142.524 341.13 142.596 341.116 142.661 341.088L142.921 340.981V346.814C142.923 346.967 142.985 347.113 143.094 347.221C143.202 347.33 143.348 347.392 143.501 347.394C143.578 347.394 143.654 347.378 143.724 347.348L145.657 346.549C145.791 346.483 145.894 346.369 145.946 346.229C145.999 346.09 145.996 345.936 145.939 345.798C145.882 345.661 145.775 345.55 145.64 345.489C145.504 345.428 145.35 345.42 145.21 345.469L144.08 345.937V344.409H146.145C147.078 345.875 148.533 346.929 150.214 347.359C150.267 347.366 150.32 347.366 150.372 347.359C150.499 347.359 150.622 347.318 150.723 347.242C150.824 347.165 150.897 347.058 150.931 346.936C150.972 346.787 150.953 346.627 150.878 346.492C150.803 346.357 150.678 346.256 150.53 346.212C150.235 346.135 149.948 346.032 149.67 345.907L150.56 345.54C150.631 345.511 150.695 345.468 150.749 345.414C150.803 345.36 150.846 345.296 150.875 345.226C150.904 345.155 150.919 345.08 150.919 345.004C150.919 344.927 150.905 344.852 150.876 344.781C150.846 344.71 150.804 344.646 150.75 344.592C150.696 344.538 150.632 344.495 150.562 344.466C150.492 344.437 150.416 344.421 150.34 344.421C150.264 344.421 150.188 344.436 150.118 344.465L148.414 345.168C148.235 345.028 148.065 344.876 147.905 344.715C147.788 344.598 147.692 344.491 147.605 344.389H149.502C149.675 344.389 149.841 344.32 149.963 344.198C150.085 344.075 150.153 343.91 150.153 343.737V340.838C150.316 340.914 150.479 340.986 150.662 341.047C150.728 341.075 150.799 341.089 150.87 341.088C151.008 341.091 151.142 341.045 151.249 340.959C151.356 340.872 151.428 340.751 151.454 340.616C151.48 340.48 151.457 340.34 151.389 340.221C151.321 340.101 151.213 340.009 151.084 339.962L151.003 340.023ZM149.014 341.826H144.045V341.475C144.046 341.413 144.071 341.354 144.115 341.311C144.158 341.267 144.217 341.242 144.279 341.241H148.699C148.76 341.242 148.819 341.267 148.863 341.311C148.906 341.354 148.931 341.413 148.933 341.475L149.014 341.826ZM148.78 343.355H144.36C144.298 343.355 144.239 343.33 144.195 343.286C144.151 343.242 144.126 343.182 144.126 343.12V342.774H149.014V343.12C149.014 343.182 148.989 343.242 148.945 343.286C148.902 343.33 148.842 343.355 148.78 343.355V343.355ZM147.01 340.211C147.108 340.139 147.18 340.037 147.217 339.92C147.254 339.804 147.253 339.679 147.215 339.563C147.176 339.447 147.103 339.346 147.004 339.275C146.905 339.203 146.786 339.165 146.664 339.165C146.542 339.165 146.423 339.203 146.325 339.275C146.226 339.346 146.152 339.447 146.114 339.563C146.075 339.679 146.075 339.804 146.111 339.92C146.148 340.037 146.22 340.139 146.318 340.211H144.431C145.214 339.751 145.967 339.24 146.685 338.683C147.404 339.24 148.159 339.75 148.943 340.211H147.01Z" fill="white"/>
<path d="M154.349 342.188H160.025C160.198 342.188 160.364 342.119 160.486 341.997C160.608 341.875 160.676 341.709 160.676 341.536V338.622C160.676 338.449 160.608 338.283 160.486 338.161C160.364 338.039 160.198 337.97 160.025 337.97H154.349C154.178 337.973 154.015 338.043 153.896 338.165C153.776 338.287 153.708 338.451 153.708 338.622V341.511C153.708 341.684 153.777 341.849 153.899 341.972C154.021 342.094 154.187 342.163 154.36 342.163L154.349 342.188ZM155.102 339.366C155.103 339.304 155.128 339.245 155.172 339.202C155.216 339.158 155.274 339.133 155.336 339.132H159.059C159.121 339.133 159.179 339.158 159.223 339.202C159.267 339.245 159.292 339.304 159.293 339.366V340.767C159.292 340.828 159.266 340.886 159.223 340.929C159.179 340.972 159.12 340.996 159.059 340.996H155.336C155.275 340.996 155.216 340.972 155.172 340.929C155.129 340.886 155.103 340.828 155.102 340.767V339.366ZM156.313 342.631H153.2C153.027 342.631 152.862 342.7 152.739 342.822C152.617 342.945 152.549 343.11 152.549 343.283V346.635C152.551 346.807 152.621 346.971 152.743 347.092C152.864 347.213 153.028 347.281 153.2 347.282H156.318C156.491 347.282 156.657 347.214 156.78 347.092C156.903 346.969 156.972 346.804 156.974 346.63V343.278C156.974 343.192 156.957 343.107 156.924 343.028C156.891 342.948 156.842 342.876 156.781 342.815C156.72 342.755 156.648 342.707 156.568 342.674C156.489 342.642 156.404 342.626 156.318 342.626L156.313 342.631ZM155.575 345.886C155.575 345.917 155.569 345.947 155.557 345.975C155.545 346.004 155.528 346.029 155.506 346.05C155.484 346.072 155.459 346.089 155.43 346.1C155.402 346.111 155.372 346.116 155.341 346.116H154.182C154.151 346.116 154.121 346.111 154.092 346.1C154.064 346.089 154.038 346.072 154.016 346.05C153.995 346.029 153.977 346.004 153.965 345.975C153.954 345.947 153.948 345.917 153.948 345.886V344.022C153.948 343.991 153.954 343.961 153.965 343.932C153.977 343.904 153.994 343.878 154.016 343.856C154.038 343.835 154.064 343.817 154.092 343.806C154.12 343.794 154.151 343.788 154.182 343.788H155.341C155.372 343.788 155.402 343.794 155.431 343.806C155.459 343.817 155.485 343.835 155.507 343.856C155.528 343.878 155.546 343.904 155.557 343.932C155.569 343.961 155.575 343.991 155.575 344.022V345.886ZM161.2 342.626H158.088C157.915 342.626 157.749 342.695 157.627 342.817C157.505 342.939 157.437 343.105 157.437 343.278V346.63C157.437 346.803 157.505 346.969 157.627 347.091C157.749 347.214 157.915 347.282 158.088 347.282H161.2C161.373 347.282 161.54 347.214 161.663 347.092C161.785 346.969 161.855 346.804 161.856 346.63V343.278C161.856 343.192 161.839 343.107 161.806 343.028C161.773 342.948 161.725 342.876 161.664 342.815C161.603 342.755 161.531 342.707 161.451 342.674C161.371 342.642 161.286 342.626 161.2 342.626V342.626ZM160.458 345.886C160.458 345.947 160.434 346.006 160.391 346.049C160.348 346.092 160.29 346.116 160.229 346.116H159.064C159.003 346.116 158.944 346.092 158.901 346.049C158.857 346.006 158.832 345.948 158.83 345.886V344.022C158.831 343.96 158.857 343.901 158.9 343.858C158.944 343.814 159.003 343.789 159.064 343.788H160.229C160.29 343.789 160.348 343.814 160.391 343.858C160.434 343.902 160.458 343.961 160.458 344.022V345.886Z" fill="white"/>
<path d="M140.683 346.233C139.938 345.981 139.26 345.564 138.698 345.014C138.137 344.464 137.706 343.794 137.438 343.054C137.198 342.377 137.048 341.671 136.99 340.955H140.327C140.481 340.955 140.628 340.894 140.737 340.785C140.846 340.676 140.907 340.529 140.907 340.375C140.907 340.22 140.846 340.073 140.737 339.964C140.628 339.855 140.481 339.794 140.327 339.794H136.924C136.924 339.498 136.924 339.208 136.924 338.918V337.985C136.932 337.924 136.932 337.863 136.924 337.802C136.881 337.651 136.784 337.52 136.652 337.435C136.52 337.349 136.362 337.315 136.206 337.337C136.051 337.359 135.908 337.437 135.806 337.556C135.703 337.676 135.647 337.828 135.648 337.985V338.938C135.648 339.223 135.648 339.509 135.648 339.794H132.24C132.086 339.794 131.939 339.855 131.83 339.964C131.721 340.073 131.66 340.22 131.66 340.375C131.66 340.529 131.721 340.676 131.83 340.785C131.939 340.894 132.086 340.955 132.24 340.955H135.576C135.517 341.671 135.367 342.376 135.129 343.054C134.86 343.793 134.429 344.463 133.867 345.013C133.306 345.563 132.628 345.98 131.884 346.233C131.802 346.263 131.727 346.308 131.663 346.368C131.599 346.427 131.548 346.498 131.512 346.578C131.476 346.657 131.457 346.743 131.454 346.831C131.452 346.918 131.468 347.004 131.5 347.086C131.532 347.167 131.58 347.241 131.641 347.303C131.702 347.365 131.775 347.414 131.855 347.448C131.935 347.482 132.022 347.499 132.109 347.498C132.196 347.498 132.282 347.48 132.362 347.445C133.257 347.129 134.073 346.622 134.755 345.96C135.436 345.298 135.966 344.496 136.309 343.609C136.652 344.496 137.182 345.298 137.863 345.96C138.544 346.622 139.361 347.129 140.256 347.445C140.332 347.475 140.413 347.49 140.495 347.491C140.647 347.492 140.794 347.44 140.912 347.344C141.029 347.247 141.109 347.113 141.138 346.963C141.167 346.814 141.143 346.659 141.07 346.526C140.997 346.393 140.88 346.289 140.739 346.233" fill="white"/>
<path d="M121.157 353.604C121.145 353.188 121.217 352.774 121.37 352.387C121.523 352 121.753 351.648 122.046 351.354C122.339 351.059 122.69 350.827 123.076 350.673C123.462 350.518 123.875 350.445 124.29 350.456C125.045 350.432 125.783 350.675 126.376 351.144C126.438 351.196 126.489 351.261 126.524 351.335C126.559 351.409 126.578 351.49 126.579 351.572C126.579 351.707 126.525 351.836 126.43 351.932C126.335 352.027 126.205 352.081 126.07 352.081C125.955 352.084 125.842 352.048 125.75 351.979C125.35 351.625 124.835 351.429 124.3 351.429C124.026 351.433 123.755 351.492 123.505 351.603C123.254 351.714 123.028 351.875 122.841 352.076C122.654 352.277 122.509 352.513 122.415 352.772C122.322 353.03 122.281 353.304 122.297 353.579C122.279 353.854 122.318 354.13 122.411 354.391C122.503 354.651 122.648 354.889 122.835 355.092C123.022 355.294 123.249 355.456 123.501 355.568C123.753 355.681 124.025 355.74 124.3 355.744C124.866 355.751 125.413 355.539 125.826 355.153C125.914 355.073 126.028 355.029 126.147 355.031C126.282 355.031 126.411 355.084 126.506 355.18C126.602 355.275 126.655 355.405 126.655 355.54C126.655 355.612 126.64 355.684 126.61 355.75C126.58 355.816 126.537 355.874 126.482 355.922C126.031 356.333 125.47 356.604 124.869 356.703C124.267 356.801 123.649 356.724 123.091 356.48C122.532 356.235 122.055 355.834 121.718 355.325C121.382 354.816 121.199 354.22 121.193 353.609" fill="white"/>
<path d="M127.769 351.088C127.769 351.016 127.782 350.945 127.809 350.879C127.837 350.813 127.877 350.753 127.927 350.702C127.978 350.652 128.038 350.612 128.105 350.586C128.171 350.559 128.242 350.546 128.313 350.548H130.17C131.584 350.548 132.479 351.353 132.479 352.585C132.479 353.956 131.385 354.664 130.048 354.664H128.837V356.136C128.837 356.271 128.784 356.401 128.688 356.496C128.593 356.592 128.464 356.645 128.329 356.645C128.259 356.65 128.189 356.641 128.123 356.617C128.057 356.594 127.997 356.557 127.946 356.509C127.895 356.462 127.854 356.404 127.826 356.34C127.799 356.275 127.784 356.206 127.785 356.136L127.769 351.088ZM130.083 353.711C130.887 353.711 131.391 353.258 131.391 352.626C131.391 351.913 130.882 351.541 130.083 351.541H128.837V353.732L130.083 353.711Z" fill="white"/>
<path d="M136.08 351.088C136.075 351.016 136.086 350.943 136.112 350.876C136.137 350.808 136.177 350.747 136.228 350.696C136.279 350.645 136.34 350.605 136.408 350.58C136.475 350.554 136.547 350.543 136.619 350.548H140.179C140.256 350.524 140.336 350.519 140.415 350.532C140.493 350.545 140.568 350.577 140.632 350.624C140.696 350.671 140.748 350.733 140.784 350.804C140.82 350.876 140.839 350.954 140.839 351.034C140.839 351.114 140.82 351.193 140.784 351.264C140.748 351.335 140.696 351.397 140.632 351.444C140.568 351.492 140.493 351.523 140.415 351.536C140.336 351.55 140.256 351.544 140.179 351.521H137.168V353.181H139.788C139.864 353.158 139.944 353.152 140.023 353.166C140.102 353.179 140.176 353.21 140.24 353.258C140.304 353.305 140.357 353.367 140.393 353.438C140.428 353.509 140.447 353.588 140.447 353.668C140.447 353.748 140.428 353.826 140.393 353.898C140.357 353.969 140.304 354.031 140.24 354.078C140.176 354.125 140.102 354.157 140.023 354.17C139.944 354.184 139.864 354.178 139.788 354.154H137.168V356.146C137.168 356.288 137.112 356.424 137.012 356.524C136.912 356.625 136.776 356.681 136.634 356.681C136.493 356.681 136.357 356.625 136.257 356.524C136.157 356.424 136.1 356.288 136.1 356.146L136.08 351.088Z" fill="white"/>
<path d="M141.41 353.604C141.443 352.783 141.792 352.005 142.384 351.436C142.976 350.866 143.765 350.548 144.587 350.548C145.408 350.548 146.197 350.866 146.789 351.436C147.381 352.005 147.73 352.783 147.763 353.604V353.604C147.73 354.426 147.381 355.203 146.789 355.773C146.197 356.343 145.408 356.661 144.587 356.661C143.765 356.661 142.976 356.343 142.384 355.773C141.792 355.203 141.443 354.426 141.41 353.604V353.604ZM146.644 353.604C146.655 353.325 146.61 353.047 146.511 352.785C146.412 352.524 146.262 352.285 146.069 352.083C145.877 351.881 145.646 351.72 145.39 351.61C145.133 351.499 144.858 351.441 144.579 351.439C144.302 351.439 144.028 351.495 143.774 351.604C143.519 351.714 143.29 351.874 143.099 352.075C142.909 352.276 142.761 352.514 142.666 352.775C142.571 353.035 142.529 353.312 142.544 353.589C142.534 353.868 142.579 354.147 142.677 354.408C142.776 354.669 142.926 354.908 143.119 355.11C143.312 355.312 143.543 355.473 143.799 355.583C144.055 355.694 144.331 355.752 144.609 355.754C144.886 355.754 145.16 355.698 145.415 355.589C145.669 355.48 145.899 355.319 146.089 355.118C146.28 354.917 146.427 354.679 146.522 354.418C146.618 354.158 146.659 353.881 146.644 353.604Z" fill="white"/>
<path d="M148.744 353.604C148.74 353.186 148.82 352.772 148.979 352.385C149.138 351.998 149.373 351.648 149.67 351.354C149.967 351.06 150.32 350.83 150.708 350.675C151.096 350.521 151.511 350.446 151.928 350.456C152.344 350.445 152.757 350.518 153.144 350.671C153.53 350.824 153.882 351.054 154.177 351.347C154.473 351.639 154.706 351.989 154.863 352.374C155.02 352.76 155.098 353.173 155.092 353.589C155.092 354.432 154.758 355.241 154.162 355.837C153.567 356.433 152.76 356.768 151.918 356.768C151.076 356.768 150.269 356.433 149.674 355.837C149.079 355.241 148.744 354.432 148.744 353.589V353.604ZM153.978 353.589C153.989 353.31 153.944 353.031 153.845 352.77C153.746 352.509 153.596 352.27 153.404 352.068C153.211 351.866 152.98 351.705 152.724 351.594C152.468 351.484 152.192 351.426 151.913 351.424C151.636 351.424 151.362 351.48 151.108 351.589C150.853 351.698 150.624 351.859 150.433 352.06C150.243 352.261 150.096 352.499 150 352.759C149.905 353.02 149.863 353.297 149.879 353.574C149.868 353.853 149.913 354.131 150.012 354.393C150.11 354.654 150.26 354.893 150.453 355.094C150.646 355.296 150.877 355.458 151.133 355.568C151.389 355.679 151.665 355.737 151.944 355.739C152.22 355.739 152.494 355.683 152.749 355.574C153.003 355.464 153.233 355.304 153.423 355.103C153.614 354.902 153.761 354.664 153.857 354.403C153.952 354.143 153.993 353.866 153.978 353.589Z" fill="white"/>
<path d="M156.348 351.088C156.344 351.018 156.354 350.949 156.378 350.883C156.401 350.818 156.438 350.758 156.486 350.708C156.534 350.657 156.591 350.617 156.655 350.589C156.719 350.562 156.787 350.548 156.857 350.548H158.586C160.493 350.548 161.816 351.857 161.816 353.574C161.816 355.285 160.493 356.63 158.586 356.63H156.857C156.722 356.63 156.593 356.577 156.497 356.481C156.402 356.385 156.348 356.256 156.348 356.121V351.088ZM158.612 355.672C158.887 355.69 159.162 355.65 159.421 355.555C159.68 355.46 159.916 355.312 160.114 355.12C160.313 354.928 160.469 354.697 160.572 354.441C160.676 354.185 160.726 353.911 160.717 353.635C160.728 353.357 160.68 353.08 160.577 352.822C160.474 352.563 160.319 352.329 160.121 352.134C159.923 351.94 159.686 351.789 159.426 351.691C159.166 351.593 158.889 351.551 158.612 351.567H157.411V355.703L158.612 355.672Z" fill="white"/>
<defs>
<filter id="filter0_d_500_7277" x="0" y="0" width="257" height="409" filterUnits="userSpaceOnUse" color-interpolation-filters="sRGB">
<feFlood flood-opacity="0" result="BackgroundImageFix"/>
<feColorMatrix in="SourceAlpha" type="matrix" values="0 0 0 0 0 0 0 0 0 0 0 0 0 0 0 0 0 0 127 0" result="hardAlpha"/>
<feOffset dy="4"/>
<feGaussianBlur stdDeviation="2"/>
<feComposite in2="hardAlpha" operator="out"/>
<feColorMatrix type="matrix" values="0 0 0 0 0 0 0 0 0 0 0 0 0 0 0 0 0 0 0.25 0"/>
<feBlend mode="normal" in2="BackgroundImageFix" result="effect1_dropShadow_500_7277"/>
<feBlend mode="normal" in="SourceGraphic" in2="effect1_dropShadow_500_7277" result="shape"/>
</filter>
<filter id="filter1_d_500_7277" x="7" y="7" width="243" height="395" filterUnits="userSpaceOnUse" color-interpolation-filters="sRGB">
<feFlood flood-opacity="0" result="BackgroundImageFix"/>
<feColorMatrix in="SourceAlpha" type="matrix" values="0 0 0 0 0 0 0 0 0 0 0 0 0 0 0 0 0 0 127 0" result="hardAlpha"/>
<feOffset dy="4"/>
<feGaussianBlur stdDeviation="2"/>
<feComposite in2="hardAlpha" operator="out"/>
<feColorMatrix type="matrix" values="0 0 0 0 0 0 0 0 0 0 0 0 0 0 0 0 0 0 0.25 0"/>
<feBlend mode="normal" in2="BackgroundImageFix" result="effect1_dropShadow_500_7277"/>
<feBlend mode="normal" in="SourceGraphic" in2="effect1_dropShadow_500_7277" result="shape"/>
</filter>
</defs>
</svg>
